if (_typeface_js && _typeface_js.loadFace) _typeface_js.loadFace({"glyphs":{"S":{"x_min":60.765625,"x_max":749.484375,"ha":810,"o":"m 425 937 l 561 922 l 712 857 l 712 731 l 712 605 l 557 687 l 440 706 l 353 662 l 463 590 l 594 537 l 704 447 l 749 294 l 720 162 l 640 66 l 521 7 l 378 -11 l 230 9 l 60 86 l 60 218 l 60 349 l 220 254 l 373 219 l 471 275 l 335 363 l 194 424 l 106 515 l 75 648 l 102 777 l 175 867 l 286 920 l 425 937 "},"a":{"x_min":36.65625,"x_max":729.21875,"ha":810,"o":"m 729 694 l 729 555 l 729 416 l 729 277 l 729 138 l 729 0 l 613 0 l 497 0 l 497 17 l 374 -11 l 237 14 l 131 88 l 61 201 l 36 347 l 59 492 l 125 605 l 227 680 l 362 706 l 497 673 l 497 694 l 613 694 l 729 694 m 405 200 l 497 227 l 497 347 l 497 466 l 405 493 l 305 452 l 268 347 l 305 242 l 405 200 "},"T":{"x_min":17.359375,"x_max":792.890625,"ha":810,"o":"m 792 694 l 668 694 l 544 694 l 544 555 l 544 416 l 544 277 l 544 138 l 544 0 l 405 0 l 266 0 l 266 138 l 266 277 l 266 416 l 266 555 l 266 694 l 141 694 l 17 694 l 17 810 l 17 926 l 146 926 l 275 926 l 405 926 l 534 926 l 663 926 l 792 926 l 792 810 l 792 694 "},"N":{"x_min":69.453125,"x_max":1030.171875,"ha":1100,"o":"m 1030 0 l 882 0 l 735 0 l 654 103 l 574 206 l 495 308 l 415 411 l 335 515 l 335 385 l 335 257 l 335 128 l 335 0 l 202 0 l 69 0 l 69 132 l 69 264 l 69 396 l 69 529 l 69 661 l 69 793 l 69 926 l 217 926 l 364 926 l 444 822 l 524 719 l 603 617 l 683 514 l 763 410 l 763 539 l 763 668 l 763 796 l 763 926 l 897 926 l 1030 926 l 1030 793 l 1030 661 l 1030 529 l 1030 396 l 1030 264 l 1030 132 l 1030 0 "},"K":{"x_min":75.234375,"x_max":1024.390625,"ha":1042,"o":"m 353 0 l 214 0 l 75 0 l 75 132 l 75 264 l 75 396 l 75 529 l 75 661 l 75 793 l 75 926 l 214 926 l 353 926 l 353 793 l 353 661 l 353 529 l 353 396 l 353 264 l 353 132 l 353 0 m 680 500 l 765 375 l 851 249 l 938 125 l 1024 0 l 907 0 l 790 0 l 674 0 l 597 122 l 518 245 l 441 368 l 364 491 l 430 599 l 495 708 l 562 817 l 627 926 l 796 926 l 966 926 l 895 819 l 822 712 l 751 606 l 680 500 "},"d":{"x_min":36.65625,"x_max":729.21875,"ha":810,"o":"m 729 926 l 729 793 l 729 661 l 729 529 l 729 396 l 729 264 l 729 132 l 729 0 l 613 0 l 497 0 l 497 21 l 362 -11 l 227 14 l 125 88 l 59 201 l 36 347 l 61 492 l 131 605 l 237 680 l 374 706 l 497 677 l 497 801 l 497 926 l 613 926 l 729 926 m 405 200 l 497 227 l 497 347 l 497 466 l 405 493 l 305 452 l 268 347 l 305 242 l 405 200 "},"Y":{"x_min":2.890625,"x_max":980.984375,"ha":984,"o":"m 630 434 l 630 289 l 630 144 l 630 0 l 491 0 l 353 0 l 353 144 l 353 289 l 353 434 l 265 556 l 177 680 l 90 802 l 2 926 l 118 926 l 234 926 l 350 926 l 423 803 l 497 681 l 571 803 l 645 926 l 813 926 l 980 926 l 893 802 l 805 680 l 718 556 l 630 434 "},"E":{"x_min":75.234375,"x_max":746.59375,"ha":810,"o":"m 746 694 l 615 694 l 484 694 l 353 694 l 353 578 l 520 578 l 688 578 l 688 467 l 688 356 l 520 356 l 353 356 l 353 231 l 484 231 l 615 231 l 746 231 l 746 115 l 746 0 l 612 0 l 478 0 l 343 0 l 209 0 l 75 0 l 75 132 l 75 264 l 75 396 l 75 529 l 75 661 l 75 793 l 75 926 l 209 926 l 343 926 l 478 926 l 612 926 l 746 926 l 746 810 l 746 694 "},"j":{"x_min":-28.9375,"x_max":341.46875,"ha":405,"o":"m 202 949 l 300 908 l 341 810 l 300 711 l 202 671 l 104 711 l 63 810 l 104 908 l 202 949 m 318 578 l 318 423 l 318 269 l 318 113 l 318 -40 l 297 -179 l 232 -278 l 123 -338 l -28 -358 l -28 -249 l -28 -140 l 86 -21 l 86 128 l 86 278 l 86 428 l 86 578 l 202 578 l 318 578 "},"y":{"x_min":11.578125,"x_max":740.796875,"ha":752,"o":"m 494 0 l 457 -115 l 420 -231 l 301 -231 l 183 -231 l 219 -115 l 257 0 l 208 138 l 159 277 l 109 416 l 60 555 l 11 694 l 135 694 l 258 694 l 298 565 l 336 435 l 376 305 l 415 435 l 454 565 l 493 694 l 617 694 l 740 694 l 691 555 l 642 416 l 593 277 l 544 138 l 494 0 "},"Z":{"x_min":46.296875,"x_max":821.828125,"ha":868,"o":"m 821 694 l 716 578 l 612 463 l 507 347 l 403 231 l 543 231 l 681 231 l 821 231 l 821 115 l 821 0 l 692 0 l 563 0 l 434 0 l 304 0 l 175 0 l 46 0 l 46 115 l 46 231 l 150 347 l 255 463 l 359 578 l 464 694 l 325 694 l 186 694 l 46 694 l 46 810 l 46 926 l 175 926 l 304 926 l 434 926 l 563 926 l 692 926 l 821 926 l 821 810 l 821 694 "},"u":{"x_min":63.65625,"x_max":729.21875,"ha":810,"o":"m 729 694 l 729 555 l 729 416 l 729 277 l 729 138 l 729 0 l 613 0 l 497 0 l 497 21 l 362 -11 l 228 11 l 135 75 l 81 175 l 63 306 l 63 435 l 63 565 l 63 694 l 179 694 l 295 694 l 295 572 l 295 451 l 295 329 l 410 210 l 497 235 l 497 388 l 497 541 l 497 694 l 613 694 l 729 694 "},"k":{"x_min":109.96875,"x_max":853.65625,"ha":868,"o":"m 394 233 l 341 177 l 341 0 l 225 0 l 109 0 l 109 132 l 109 264 l 109 396 l 109 529 l 109 661 l 109 793 l 109 926 l 225 926 l 341 926 l 341 771 l 341 618 l 341 463 l 448 578 l 556 694 l 698 694 l 840 694 l 746 598 l 653 500 l 560 404 l 633 302 l 707 201 l 780 101 l 853 0 l 708 0 l 564 0 l 479 116 l 394 233 "},"g":{"x_min":36.65625,"x_max":729.21875,"ha":810,"o":"m 729 694 l 729 544 l 729 395 l 729 246 l 729 97 l 702 -43 l 628 -146 l 517 -210 l 380 -232 l 267 -219 l 175 -186 l 175 10 l 351 -39 l 496 78 l 362 46 l 227 68 l 125 132 l 59 235 l 36 376 l 61 517 l 131 620 l 237 683 l 374 706 l 497 677 l 497 694 l 613 694 l 729 694 m 268 376 l 305 275 l 405 239 l 497 263 l 497 376 l 497 489 l 405 513 l 305 476 l 268 376 "},"t":{"x_min":34.71875,"x_max":428.28125,"ha":463,"o":"m 312 424 l 312 326 l 428 206 l 428 97 l 428 -11 l 275 8 l 166 68 l 102 167 l 81 306 l 81 424 l 34 424 l 34 617 l 81 617 l 81 810 l 196 810 l 312 810 l 312 617 l 428 617 l 428 424 l 312 424 "},"e":{"x_min":36.65625,"x_max":773.59375,"ha":810,"o":"m 773 289 l 651 289 l 528 289 l 407 289 l 284 289 l 443 190 l 551 208 l 648 260 l 648 54 l 541 2 l 414 -11 l 259 14 l 139 88 l 63 201 l 36 347 l 64 492 l 142 605 l 259 680 l 405 706 l 523 688 l 625 638 l 704 554 l 755 437 l 773 289 m 276 443 l 397 443 l 518 443 l 405 542 l 276 443 "},"J":{"x_min":-5.78125,"x_max":619.265625,"ha":695,"o":"m 619 926 l 619 785 l 619 644 l 619 504 l 619 363 l 596 210 l 528 91 l 420 15 l 272 -11 l 119 9 l -5 72 l -5 221 l -5 371 l 104 293 l 205 264 l 299 291 l 341 392 l 341 525 l 341 658 l 341 792 l 341 926 l 480 926 l 619 926 "},"W":{"x_min":-23.15625,"x_max":1412.15625,"ha":1389,"o":"m 1122 0 l 983 0 l 844 0 l 807 134 l 769 267 l 732 401 l 694 535 l 656 401 l 619 267 l 581 134 l 544 0 l 405 0 l 266 0 l 224 132 l 183 264 l 141 396 l 101 529 l 59 661 l 18 793 l -23 926 l 115 926 l 254 926 l 292 791 l 329 657 l 367 524 l 405 390 l 442 524 l 480 657 l 517 791 l 555 926 l 694 926 l 833 926 l 871 791 l 908 657 l 946 524 l 983 390 l 1021 524 l 1059 657 l 1096 791 l 1134 926 l 1273 926 l 1412 926 l 1370 793 l 1329 661 l 1287 529 l 1247 396 l 1205 264 l 1164 132 l 1122 0 "},"v":{"x_min":11.578125,"x_max":740.796875,"ha":752,"o":"m 494 0 l 376 0 l 257 0 l 208 138 l 159 277 l 109 416 l 60 555 l 11 694 l 135 694 l 258 694 l 298 565 l 336 435 l 376 305 l 415 435 l 454 565 l 493 694 l 617 694 l 740 694 l 691 555 l 642 416 l 593 277 l 544 138 l 494 0 "},"s":{"x_min":63.65625,"x_max":636.625,"ha":695,"o":"m 359 703 l 474 691 l 601 642 l 601 533 l 601 424 l 461 490 l 307 483 l 378 441 l 492 402 l 593 334 l 636 219 l 599 93 l 496 15 l 335 -10 l 208 5 l 63 63 l 63 176 l 64 290 l 208 218 l 345 190 l 405 222 l 322 272 l 196 317 l 109 385 l 76 486 l 109 608 l 204 680 l 359 703 "},"B":{"x_min":75.234375,"x_max":885.484375,"ha":926,"o":"m 75 926 l 211 926 l 346 926 l 482 926 l 665 893 l 785 803 l 827 670 l 802 570 l 733 491 l 844 400 l 885 270 l 859 160 l 787 75 l 674 19 l 525 0 l 375 0 l 225 0 l 75 0 l 75 132 l 75 264 l 75 396 l 75 529 l 75 661 l 75 793 l 75 926 m 353 713 l 353 578 l 472 578 l 549 646 l 472 713 l 353 713 m 353 376 l 353 212 l 516 212 l 607 294 l 516 376 l 353 376 "},"H":{"x_min":75.234375,"x_max":966.515625,"ha":1042,"o":"m 966 0 l 821 0 l 677 0 l 677 168 l 677 338 l 520 338 l 364 338 l 364 168 l 364 0 l 219 0 l 75 0 l 75 132 l 75 264 l 75 396 l 75 529 l 75 661 l 75 793 l 75 926 l 219 926 l 364 926 l 364 762 l 364 599 l 520 599 l 677 599 l 677 762 l 677 926 l 821 926 l 966 926 l 966 793 l 966 661 l 966 529 l 966 396 l 966 264 l 966 132 l 966 0 "},"c":{"x_min":36.65625,"x_max":590.328125,"ha":637,"o":"m 385 706 l 497 691 l 590 640 l 590 527 l 590 414 l 414 484 l 312 447 l 268 347 l 312 246 l 414 210 l 590 279 l 590 166 l 590 54 l 497 2 l 385 -11 l 247 14 l 136 88 l 63 201 l 36 347 l 63 492 l 136 605 l 247 680 l 385 706 "},"q":{"x_min":36.65625,"x_max":729.21875,"ha":810,"o":"m 729 694 l 729 562 l 729 430 l 729 298 l 729 164 l 729 32 l 729 -99 l 729 -231 l 613 -231 l 497 -231 l 497 -107 l 497 17 l 374 -11 l 237 14 l 131 88 l 61 201 l 36 347 l 59 492 l 125 605 l 227 680 l 362 706 l 497 673 l 497 694 l 613 694 l 729 694 m 405 200 l 497 227 l 497 347 l 497 466 l 405 493 l 305 452 l 268 347 l 305 242 l 405 200 "},"b":{"x_min":81.03125,"x_max":773.59375,"ha":810,"o":"m 435 706 l 572 680 l 679 605 l 748 492 l 773 347 l 750 201 l 684 88 l 582 14 l 447 -11 l 312 21 l 312 0 l 196 0 l 81 0 l 81 132 l 81 264 l 81 396 l 81 529 l 81 661 l 81 793 l 81 926 l 196 926 l 312 926 l 312 801 l 312 677 l 435 706 m 405 200 l 503 242 l 542 347 l 503 452 l 405 493 l 312 466 l 312 347 l 312 227 l 405 200 "},"D":{"x_min":75.234375,"x_max":978.09375,"ha":995,"o":"m 75 926 l 208 926 l 341 926 l 474 926 l 633 903 l 771 842 l 880 744 l 952 616 l 978 463 l 952 309 l 880 181 l 771 83 l 633 22 l 474 0 l 341 0 l 208 0 l 75 0 l 75 132 l 75 264 l 75 396 l 75 529 l 75 661 l 75 793 l 75 926 m 353 675 l 353 533 l 353 392 l 353 250 l 474 250 l 617 306 l 677 463 l 617 619 l 474 675 l 353 675 "},"I":{"x_min":92.59375,"x_max":370.40625,"ha":463,"o":"m 370 0 l 231 0 l 92 0 l 92 132 l 92 264 l 92 396 l 92 529 l 92 661 l 92 793 l 92 926 l 231 926 l 370 926 l 370 793 l 370 661 l 370 529 l 370 396 l 370 264 l 370 132 l 370 0 "},"G":{"x_min":17.359375,"x_max":879.703125,"ha":926,"o":"m 549 937 l 707 924 l 879 864 l 879 724 l 879 585 l 730 653 l 567 677 l 433 652 l 348 578 l 318 461 l 348 338 l 431 258 l 557 229 l 648 236 l 648 337 l 520 337 l 520 540 l 640 540 l 760 540 l 879 540 l 879 387 l 879 235 l 879 82 l 765 29 l 646 0 l 528 -11 l 390 4 l 267 50 l 163 122 l 85 218 l 34 332 l 17 463 l 32 585 l 79 698 l 154 794 l 258 871 l 390 920 l 549 937 "},"z":{"x_min":57.875,"x_max":636.625,"ha":695,"o":"m 636 482 l 543 392 l 449 301 l 355 212 l 495 212 l 636 212 l 636 106 l 636 0 l 491 0 l 347 0 l 202 0 l 57 0 l 57 106 l 57 212 l 151 301 l 245 392 l 339 482 l 198 482 l 57 482 l 57 588 l 57 694 l 202 694 l 347 694 l 491 694 l 636 694 l 636 588 l 636 482 "},"U":{"x_min":69.453125,"x_max":914.421875,"ha":984,"o":"m 914 926 l 914 795 l 914 665 l 914 535 l 914 405 l 892 262 l 832 146 l 739 60 l 624 6 l 491 -11 l 358 6 l 243 59 l 151 145 l 90 261 l 69 405 l 69 535 l 69 665 l 69 795 l 69 926 l 214 926 l 358 926 l 358 795 l 358 665 l 358 535 l 358 405 l 396 282 l 491 243 l 587 282 l 625 405 l 625 535 l 625 665 l 625 795 l 625 926 l 769 926 l 914 926 "},"w":{"x_min":11.578125,"x_max":1087.078125,"ha":1099,"o":"m 872 0 l 674 0 l 632 132 l 591 263 l 549 395 l 508 263 l 465 132 l 424 0 l 225 0 l 183 138 l 139 277 l 97 416 l 54 555 l 11 694 l 132 694 l 253 694 l 283 577 l 313 462 l 343 345 l 381 462 l 419 577 l 457 694 l 641 694 l 679 577 l 717 462 l 755 345 l 785 462 l 815 577 l 844 694 l 965 694 l 1087 694 l 1044 555 l 1001 416 l 958 277 l 915 138 l 872 0 "},"F":{"x_min":75.234375,"x_max":746.59375,"ha":752,"o":"m 746 694 l 615 694 l 484 694 l 353 694 l 353 559 l 520 559 l 688 559 l 688 448 l 688 337 l 520 337 l 353 337 l 353 168 l 353 0 l 214 0 l 75 0 l 75 132 l 75 264 l 75 396 l 75 529 l 75 661 l 75 793 l 75 926 l 209 926 l 343 926 l 478 926 l 612 926 l 746 926 l 746 810 l 746 694 "},"r":{"x_min":81.03125,"x_max":574.890625,"ha":579,"o":"m 439 706 l 574 659 l 574 542 l 574 424 l 406 474 l 312 448 l 312 299 l 312 149 l 312 0 l 196 0 l 81 0 l 81 138 l 81 277 l 81 416 l 81 555 l 81 694 l 196 694 l 312 694 l 312 671 l 439 706 "},"x":{"x_min":11.578125,"x_max":798.671875,"ha":810,"o":"m 405 192 l 358 96 l 312 0 l 162 0 l 11 0 l 92 117 l 173 236 l 254 354 l 176 467 l 98 580 l 20 694 l 170 694 l 321 694 l 405 514 l 489 694 l 639 694 l 790 694 l 711 580 l 633 467 l 555 354 l 636 236 l 717 117 l 798 0 l 648 0 l 497 0 l 451 96 l 405 192 "},"V":{"x_min":11.578125,"x_max":1030.171875,"ha":1042,"o":"m 671 0 l 520 0 l 370 0 l 319 132 l 268 264 l 217 396 l 164 529 l 113 661 l 62 793 l 11 926 l 164 926 l 318 926 l 368 784 l 419 641 l 469 499 l 520 357 l 571 499 l 622 641 l 672 784 l 723 926 l 876 926 l 1030 926 l 979 793 l 927 661 l 876 529 l 824 396 l 773 264 l 722 132 l 671 0 "},"Q":{"x_min":17.359375,"x_max":1024.390625,"ha":1042,"o":"m 1024 463 l 995 299 l 914 162 l 1024 0 l 883 0 l 743 0 l 725 27 l 626 -1 l 520 -11 l 386 4 l 266 50 l 164 122 l 85 218 l 35 332 l 17 463 l 35 593 l 85 708 l 164 802 l 266 875 l 386 921 l 520 937 l 654 921 l 775 875 l 876 802 l 955 708 l 1006 593 l 1024 463 m 520 248 l 572 254 l 509 347 l 694 347 l 723 463 l 663 618 l 520 677 l 377 618 l 318 463 l 377 307 l 520 248 "},"h":{"x_min":81.03125,"x_max":746.59375,"ha":810,"o":"m 447 706 l 581 682 l 675 619 l 729 518 l 746 387 l 746 258 l 746 129 l 746 0 l 630 0 l 515 0 l 515 121 l 515 243 l 515 364 l 399 484 l 312 459 l 312 305 l 312 153 l 312 0 l 196 0 l 81 0 l 81 132 l 81 264 l 81 396 l 81 529 l 81 661 l 81 793 l 81 926 l 196 926 l 312 926 l 312 799 l 312 673 l 447 706 "},"M":{"x_min":76.203125,"x_max":1158.46875,"ha":1235,"o":"m 1158 0 l 1019 0 l 880 0 l 880 131 l 880 262 l 880 393 l 880 524 l 815 427 l 750 328 l 684 231 l 543 231 l 476 328 l 408 426 l 342 523 l 342 392 l 342 261 l 342 131 l 342 0 l 209 0 l 76 0 l 76 132 l 76 264 l 76 396 l 76 529 l 76 661 l 76 793 l 76 926 l 230 926 l 385 926 l 463 817 l 541 707 l 618 598 l 693 707 l 767 817 l 843 926 l 1000 926 l 1158 926 l 1158 793 l 1158 661 l 1158 529 l 1158 396 l 1158 264 l 1158 132 l 1158 0 "},"C":{"x_min":17.359375,"x_max":821.828125,"ha":868,"o":"m 497 937 l 684 916 l 821 864 l 821 714 l 821 566 l 685 650 l 538 677 l 381 620 l 318 463 l 381 305 l 538 248 l 685 275 l 821 359 l 821 210 l 821 61 l 684 5 l 497 -11 l 345 11 l 213 76 l 109 177 l 41 308 l 17 463 l 41 617 l 109 748 l 213 849 l 345 914 l 497 937 "},"f":{"x_min":34.71875,"x_max":428.28125,"ha":463,"o":"m 428 937 l 428 828 l 428 719 l 313 617 l 428 617 l 428 424 l 312 424 l 312 282 l 312 141 l 312 0 l 196 0 l 81 0 l 81 141 l 81 282 l 81 424 l 34 424 l 34 617 l 81 617 l 81 619 l 102 758 l 166 857 l 275 917 l 428 937 "},"L":{"x_min":75.234375,"x_max":746.59375,"ha":752,"o":"m 353 260 l 484 260 l 615 260 l 746 260 l 746 130 l 746 0 l 612 0 l 478 0 l 343 0 l 209 0 l 75 0 l 75 132 l 75 264 l 75 396 l 75 529 l 75 661 l 75 793 l 75 926 l 214 926 l 353 926 l 353 792 l 353 659 l 353 526 l 353 393 l 353 260 "},"i":{"x_min":63.65625,"x_max":341.46875,"ha":405,"o":"m 202 949 l 300 908 l 341 810 l 300 711 l 202 671 l 104 711 l 63 810 l 104 908 l 202 949 m 318 0 l 202 0 l 86 0 l 86 144 l 86 289 l 86 434 l 86 578 l 202 578 l 318 578 l 318 434 l 318 289 l 318 144 l 318 0 "},"A":{"x_min":11.578125,"x_max":1030.171875,"ha":1042,"o":"m 351 173 l 289 0 l 150 0 l 11 0 l 62 132 l 113 264 l 164 396 l 217 529 l 268 661 l 319 793 l 370 926 l 520 926 l 671 926 l 722 793 l 773 661 l 824 529 l 876 396 l 927 264 l 979 132 l 1030 0 l 891 0 l 752 0 l 690 173 l 520 173 l 351 173 m 520 688 l 476 546 l 432 405 l 609 405 l 565 546 l 520 688 "},"n":{"x_min":81.03125,"x_max":746.59375,"ha":810,"o":"m 447 706 l 581 682 l 675 619 l 729 518 l 746 387 l 746 258 l 746 129 l 746 0 l 630 0 l 515 0 l 515 121 l 515 243 l 515 364 l 399 484 l 312 459 l 312 305 l 312 153 l 312 0 l 196 0 l 81 0 l 81 138 l 81 277 l 81 416 l 81 555 l 81 694 l 196 694 l 312 694 l 312 673 l 447 706 "},"O":{"x_min":17.359375,"x_max":1024.390625,"ha":1042,"o":"m 520 937 l 654 921 l 774 875 l 876 802 l 955 708 l 1006 593 l 1024 463 l 1006 332 l 955 218 l 876 122 l 774 50 l 654 4 l 520 -11 l 386 4 l 267 50 l 164 122 l 85 218 l 35 332 l 17 463 l 35 593 l 85 708 l 164 802 l 267 875 l 386 921 l 520 937 m 520 677 l 377 618 l 318 463 l 377 307 l 520 248 l 663 307 l 723 463 l 663 618 l 520 677 "}," ":{"x_min":0,"x_max":0,"ha":289},"X":{"x_min":2.890625,"x_max":1038.859375,"ha":1042,"o":"m 691 487 l 778 365 l 865 243 l 952 121 l 1038 0 l 923 0 l 807 0 l 691 0 l 603 141 l 517 284 l 427 141 l 338 0 l 170 0 l 2 0 l 89 119 l 176 239 l 263 359 l 350 479 l 270 591 l 190 702 l 110 814 l 31 926 l 147 926 l 263 926 l 379 926 l 452 803 l 525 681 l 599 803 l 674 926 l 842 926 l 1009 926 l 929 816 l 850 706 l 770 597 l 691 487 "},"P":{"x_min":75.234375,"x_max":850.765625,"ha":868,"o":"m 75 926 l 214 926 l 352 926 l 490 926 l 630 898 l 745 825 l 822 716 l 850 583 l 822 450 l 745 341 l 630 268 l 490 241 l 353 241 l 353 120 l 353 0 l 214 0 l 75 0 l 75 132 l 75 264 l 75 396 l 75 529 l 75 661 l 75 793 l 75 926 m 353 694 l 353 583 l 353 472 l 456 472 l 567 583 l 456 694 l 353 694 "},"m":{"x_min":81.03125,"x_max":1209.59375,"ha":1273,"o":"m 910 706 l 1044 682 l 1138 619 l 1192 518 l 1209 387 l 1209 258 l 1209 129 l 1209 0 l 1093 0 l 978 0 l 978 121 l 978 243 l 978 364 l 862 484 l 761 387 l 761 258 l 761 129 l 761 0 l 645 0 l 529 0 l 529 121 l 529 243 l 529 364 l 413 484 l 312 449 l 312 299 l 312 149 l 312 0 l 196 0 l 81 0 l 81 138 l 81 277 l 81 416 l 81 555 l 81 694 l 196 694 l 312 694 l 312 665 l 462 706 l 591 684 l 683 625 l 788 683 l 910 706 "},"l":{"x_min":87.78125,"x_max":435.03125,"ha":463,"o":"m 319 926 l 319 775 l 319 626 l 319 475 l 319 326 l 435 206 l 435 97 l 435 -11 l 282 8 l 173 68 l 109 167 l 87 306 l 87 461 l 87 616 l 87 770 l 87 926 l 203 926 l 319 926 "},"p":{"x_min":81.03125,"x_max":773.59375,"ha":810,"o":"m 435 706 l 572 680 l 679 605 l 748 492 l 773 347 l 750 201 l 684 88 l 582 14 l 447 -11 l 312 21 l 312 -105 l 312 -231 l 196 -231 l 81 -231 l 81 -99 l 81 32 l 81 164 l 81 298 l 81 430 l 81 562 l 81 694 l 196 694 l 312 694 l 312 677 l 435 706 m 405 200 l 503 242 l 542 347 l 503 452 l 405 493 l 312 466 l 312 347 l 312 227 l 405 200 "},"R":{"x_min":75.234375,"x_max":906.703125,"ha":926,"o":"m 75 926 l 214 926 l 352 926 l 490 926 l 630 898 l 745 825 l 822 716 l 850 583 l 813 431 l 711 313 l 776 209 l 842 104 l 906 0 l 747 0 l 588 0 l 513 120 l 438 241 l 353 241 l 353 120 l 353 0 l 214 0 l 75 0 l 75 132 l 75 264 l 75 396 l 75 529 l 75 661 l 75 793 l 75 926 m 353 694 l 353 583 l 353 472 l 456 472 l 567 583 l 456 694 l 353 694 "},"o":{"x_min":36.65625,"x_max":773.59375,"ha":810,"o":"m 405 706 l 550 680 l 667 605 l 745 492 l 773 347 l 745 201 l 667 88 l 550 14 l 405 -11 l 259 14 l 142 88 l 64 201 l 36 347 l 64 492 l 142 605 l 259 680 l 405 706 m 405 493 l 307 452 l 268 347 l 307 242 l 405 200 l 502 242 l 542 347 l 502 452 l 405 493 "}}}
